{"title":"Doctor Who - The Pandorica Opens (s05e12)","uid":5638421,"size":322110018,"categoryP":"video","categoryS":"tv_shows","magnet":"?xt=urn:btih:6cf205ad59fd6e8fbecc8fe994cd0febef26b785&amp;dn=Doctor+Who+-+The+Pandorica+Opens+%28s05e12%29&amp;tr=udp%3A%2F%2Ftracker.openbittorrent.com%3A80&amp;tr=udp%3A%2F%2Fopen.demonii.com%3A1337&amp;tr=udp%3A%2F%2Ftracker.coppersurfer.tk%3A6969&amp;tr=udp%3A%2F%2Fexodus.desync.com%3A6969","seeders":1,"leechers":0,"uploader":"idf560","files":1,"time":1276981711,"description":"Doctor Who\n&quot;The Pandorica Opens&quot;\n\nThe Doctor's friends unite to send him a terrible warning: the Pandorica - which is said to contain the most feared being in all the cosmos - is opening. What is inside, and can the Doctor stop it?\n\nMatt Smith\nKaren Gillan\nAlex Kingston\nTony Curran\nBill Paterson\nIan McNeice\nChrissie Cotterill\nHoward Lee\nJoe Jacobs\nSimon Fisher Becker\nMarcus O'Donovan\nClive Wood\nChristopher Ryan\nDavid Fynn\nBarnaby Edwards\nRuari Mears\nToby Haynes\n\nFormat                           : AVI\nFormat/Info                      : Audio Video Interleave\nFile size                        : 307 MiB\nDuration                         : 48mn 42s\nOverall bit rate                 : 882 Kbps\nWriting library                  : MPlayer\n\nVideo\nID                               : 0\nFormat                           : MPEG-4 Visual\nFormat profile                   : Simple@L1\nFormat settings, BVOP            : No\nFormat settings, QPel            : No\nFormat settings, GMC             : No warppoints\nFormat settings, Matrix          : Default (H.263)\nCodec ID                         : DX50\nCodec ID/Hint                    : DivX 5\nDuration                         : 48mn 42s\nBit rate                         : 741 Kbps\nWidth                            : 640 pixels\nHeight                           : 352 pixels\nDisplay aspect ratio             : 16:9\nFrame rate                       : 25.000 fps\nColor space                      : YUV\nChroma subsampling               : 4:2:0\nBit depth                        : 8 bits\nScan type                        : Interlaced\nScan order                       : Top Field First\nBits/(Pixel*Frame)               : 0.132\nStream size                      : 258 MiB (84%)\nWriting library                  : Lavc52.30.1\n\nAudio\nID                               : 1\nFormat                           : MPEG Audio\nFormat version                   : Version 1\nFormat profile                   : Layer 3\nMode                             : Joint stereo\nMode extension                   : MS Stereo\nCodec ID                         : 55\nCodec ID/Hint                    : MP3\nDuration                         : 48mn 42s\nBit rate mode                    : Constant\nBit rate                         : 128 Kbps\nChannel(s)                       : 2 channels\nSampling rate                    : 44.1 KHz\nStream size                      : 44.6 MiB (15%)\nAlignment                        : Aligned on interleaves\nInterleave, duration             : 26 ms (0.65 video frame)\nInterleave, preload duration     : 809 ms\n\nTested with:\nWindows Media Player\nWindows Media Center\nVLC Media Player\nQuicktime Player (with DivX Plus)\nRealPlayer\n\nPlease help me seed and speed up the download for others.\nComments welcome..\nThank you\t","torrent":{"xt":"urn:btih:6cf205ad59fd6e8fbecc8fe994cd0febef26b785","amp;dn":"Doctor+Who+-+The+Pandorica+Opens+%28s05e12%29","amp;tr":["udp%3A%2F%2Ftracker.openbittorrent.com%3A80","udp%3A%2F%2Fopen.demonii.com%3A1337","udp%3A%2F%2Ftracker.coppersurfer.tk%3A6969","udp%3A%2F%2Fexodus.desync.com%3A6969"],"infoHash":"6cf205ad59fd6e8fbecc8fe994cd0febef26b785","infoHashBuffer":{"type":"Buffer","data":[108,242,5,173,89,253,110,143,190,204,143,233,148,205,15,235,239,38,183,133]},"announce":[],"urlList":[]}}